<?xml version="1.0" standalone="no"?>
<!DOCTYPE svg PUBLIC "-//W3C//DTD SVG 20010904//EN"
 "http://www.w3.org/TR/2001/REC-SVG-20010904/DTD/svg10.dtd">
<svg version="1.0" xmlns="http://www.w3.org/2000/svg"
 width="300.000000pt" height="424.000000pt" viewBox="0 0 300.000000 424.000000"
 preserveAspectRatio="xMidYMid meet">
<metadata>
Created by potrace 1.15, written by Peter Selinger 2001-2017
</metadata>
<g transform="translate(0.000000,424.000000) scale(0.100000,-0.100000)"
fill="#000000" stroke="none">
<path d="M1416 3319 c-140 -20 -279 -86 -425 -201 -131 -103 -225 -262 -288
-488 -20 -74 -37 -136 -38 -137 0 -1 -38 -5 -83 -9 -45 -4 -82 -9 -82 -12 0
-3 18 -61 39 -131 22 -69 69 -234 105 -366 115 -426 155 -514 294 -653 50 -51
92 -89 92 -85 0 5 7 0 14 -10 8 -10 17 -18 20 -17 4 0 24 -10 46 -23 28 -17
37 -26 29 -34 -8 -8 -7 -13 2 -18 7 -5 10 -4 5 3 -3 6 -2 13 3 16 14 9 2 677
-12 695 -9 12 -9 13 1 7 9 -6 12 93 12 478 l0 486 180 0 180 0 2 -287 c1 -159
2 -456 2 -661 l1 -373 -52 -18 c-28 -10 -68 -28 -88 -42 -72 -48 -135 -179
-135 -280 0 -35 3 -38 45 -54 25 -10 42 -22 38 -28 -3 -5 -1 -7 4 -4 14 9 74
-13 67 -24 -3 -5 1 -6 8 -4 7 3 50 -12 94 -34 59 -28 85 -36 97 -29 10 5 22 6
29 2 7 -5 8 -3 3 6 -6 10 -4 12 9 7 9 -4 15 -3 12 2 -7 10 221 124 234 116 6
-3 8 22 7 67 -3 81 -32 157 -82 216 -28 33 -116 83 -167 96 l-28 6 0 113 c0
61 -3 412 -7 780 l-6 667 96 0 c71 0 97 -3 98 -12 0 -7 2 -42 2 -77 2 -62 3
-65 31 -72 16 -5 33 -6 38 -3 4 3 8 41 8 85 l0 79 40 0 c24 0 42 -5 44 -12 4
-11 16 -885 16 -1132 0 -70 2 -78 18 -72 16 6 16 5 0 -8 -16 -11 -18 -32 -18
-158 0 -80 3 -226 7 -326 l6 -181 27 14 c15 8 30 12 34 10 3 -3 4 -2 2 1 -3 4
16 23 42 44 78 62 176 162 210 214 36 56 90 191 127 321 27 95 185 700 185
709 0 3 -29 6 -64 6 l-64 0 -7 47 c-10 66 -58 210 -96 285 -126 252 -331 424
-583 488 -85 22 -264 26 -380 9z"/>
<path d="M431 1265 c-23 -58 -41 -110 -41 -114 0 -5 10 -16 23 -24 23 -15 24
-14 60 59 44 88 56 92 134 39 72 -48 103 -45 89 10 -5 18 -26 31 -93 60 -49
20 -98 45 -109 56 l-22 21 -41 -107z"/>
<path d="M2648 1349 c-2 -6 -46 -32 -97 -57 -101 -50 -123 -71 -105 -99 17
-27 27 -25 83 17 74 56 95 52 137 -25 19 -33 35 -64 37 -69 5 -14 47 17 47 34
0 20 -83 210 -91 210 -4 0 -9 -5 -11 -11z"/>
<path d="M447 1104 c-46 -102 -54 -128 -45 -143 14 -23 240 -160 330 -201 250
-112 696 -178 1018 -151 401 33 738 151 968 338 l43 35 -62 116 c-33 65 -63
119 -65 121 -2 3 -21 -11 -42 -31 -120 -116 -395 -230 -667 -277 -121 -21
-341 -30 -486 -21 -366 25 -708 138 -869 286 -32 30 -60 54 -62 54 -3 0 -30
-56 -61 -126z"/>
</g>
</svg>
